<svg xmlns="http://www.w3.org/2000/svg" width="294" height="23" viewBox="0 0 294 23"><g fill="#FFF" fill-rule="evenodd" opacity=".5"><path d="M28.908 8.73c-1.058 0-1.846.516-1.846 1.76 0 .938.52 1.589 1.79 1.589 1.075 0 1.806-.631 1.806-1.627 0-1.13-.654-1.723-1.75-1.723zm-2.115 8.785c-.25.305-.5.63-.5 1.014 0 .765.98.995 2.327.995 1.115 0 2.635-.078 2.635-1.11 0-.613-.731-.651-1.655-.709l-2.807-.19zm5.692-8.728c.346.44.712 1.053.712 1.933 0 2.124-1.673 3.368-4.096 3.368-.616 0-1.174-.076-1.52-.172l-.635 1.014 1.885.115c3.328.211 5.289.307 5.289 2.851 0 2.202-1.942 3.445-5.29 3.445-3.48 0-4.807-.88-4.807-2.392 0-.861.385-1.32 1.058-1.952-.635-.267-.846-.746-.846-1.263 0-.421.211-.804.558-1.168.346-.363.73-.727 1.192-1.148-.942-.46-1.654-1.454-1.654-2.87 0-2.201 1.462-3.713 4.404-3.713.827 0 1.327.076 1.77.192h3.75v1.626l-1.77.134zM37.561 5.415c-1.068 0-1.685-.633-1.685-1.727 0-1.093.617-1.688 1.685-1.688 1.087 0 1.705.595 1.705 1.688 0 1.094-.618 1.727-1.705 1.727zm-2.416 11.53V15.43l.955-.133c.263-.04.3-.097.3-.385v-5.64c0-.211-.056-.346-.244-.403l-1.011-.365.206-1.554h3.877v7.962c0 .308.018.346.3.385l.955.133v1.515h-5.338zM48.49 16.176c-.85.403-2.095.77-3.222.77-2.353 0-3.242-.924-3.242-3.1V8.802c0-.115 0-.192-.16-.192h-1.383V6.897c1.74-.193 2.432-1.04 2.65-3.139h1.878v2.735c0 .134 0 .192.158.192h2.788V8.61H45.01v4.6c0 1.136.277 1.579 1.344 1.579.554 0 1.127-.135 1.602-.308l.534 1.695M20.078 11.21L11.143 2.38a1.329 1.329 0 0 0-1.863 0L7.424 4.215 9.778 6.54a1.578 1.578 0 0 1 1.61.37c.438.434.561 1.06.372 1.602l2.268 2.24a1.58 1.58 0 0 1 1.62.369 1.536 1.536 0 0 1 0 2.19 1.581 1.581 0 0 1-2.218 0 1.537 1.537 0 0 1-.341-1.684l-2.116-2.09v5.5a1.537 1.537 0 0 1 .415 2.485 1.581 1.581 0 0 1-2.218 0 1.537 1.537 0 0 1 0-2.192c.152-.15.327-.262.514-.338V9.44a1.55 1.55 0 0 1-.852-2.032l-2.32-2.293-6.126 6.053a1.292 1.292 0 0 0 0 1.843l8.935 8.828a1.33 1.33 0 0 0 1.864 0l8.893-8.787a1.292 1.292 0 0 0 0-1.843"/><g><path d="M74 16.341l10.465-4.322V9.314L74 5v3.244l6.36 2.431-6.36 2.44zM84.964 14.369h11.462v3.452H84.964zM108.153 13.818c0-.263-.056-.495-.167-.695a1.67 1.67 0 0 0-.475-.528 3.28 3.28 0 0 0-.73-.399 9.66 9.66 0 0 0-.922-.315 10.613 10.613 0 0 1-1.318-.47 5.083 5.083 0 0 1-1.158-.688 3.372 3.372 0 0 1-.824-.95c-.21-.361-.315-.78-.315-1.256s.105-.903.315-1.28c.21-.377.49-.698.843-.961a3.953 3.953 0 0 1 1.229-.608 4.999 4.999 0 0 1 1.461-.212c.545 0 1.054.082 1.528.247.474.164.89.395 1.244.69a3.3 3.3 0 0 1 .844 1.064c.207.413.313.87.319 1.371h-1.866a2.604 2.604 0 0 0-.183-.763 1.75 1.75 0 0 0-.404-.597 1.786 1.786 0 0 0-.634-.387 2.503 2.503 0 0 0-.863-.137c-.28 0-.54.036-.778.107a1.83 1.83 0 0 0-.618.311 1.413 1.413 0 0 0-.556 1.147c0 .258.068.482.202.672.135.19.311.356.53.498.217.141.467.264.75.368.282.104.576.199.882.285.472.137.923.305 1.353.505.43.2.808.44 1.135.721.327.282.586.607.777.976.192.37.288.793.288 1.269 0 .491-.106.924-.319 1.299a2.888 2.888 0 0 1-.855.941 3.926 3.926 0 0 1-1.244.574 5.57 5.57 0 0 1-2.511.095 4.95 4.95 0 0 1-.984-.296 4.38 4.38 0 0 1-.874-.49 3.456 3.456 0 0 1-.704-.676 3.083 3.083 0 0 1-.65-1.903h1.874c.026.334.102.626.226.874.124.248.29.454.498.619.207.164.45.288.726.372.278.083.585.125.922.125a3 3 0 0 0 .785-.099c.244-.065.456-.163.638-.292a1.333 1.333 0 0 0 .583-1.128zm5.582-4.23c.29-.406.644-.722 1.062-.95a2.864 2.864 0 0 1 1.395-.342c.436 0 .836.064 1.201.19.366.127.678.323.937.589.26.266.462.607.607 1.025.145.418.218.918.218 1.5v5.066h-1.859v-5.08c0-.315-.04-.584-.12-.81a1.468 1.468 0 0 0-.342-.558 1.367 1.367 0 0 0-.54-.327 2.28 2.28 0 0 0-.724-.106 2.26 2.26 0 0 0-1.073.247 2.149 2.149 0 0 0-.762.664v5.97h-1.858V5h1.858v4.588zm11.616 7.23a4.6 4.6 0 0 1-1.703-.304 3.95 3.95 0 0 1-1.317-.835 3.74 3.74 0 0 1-.852-1.257 4.025 4.025 0 0 1-.303-1.569v-.31c0-.654.108-1.241.323-1.763.215-.522.502-.967.863-1.337.36-.37.78-.653 1.26-.85.479-.198.983-.297 1.512-.297.611 0 1.15.1 1.617.3.466.2.856.481 1.17.843.313.362.55.792.711 1.288.161.496.241 1.04.241 1.633v.767h-5.831c.031.319.111.615.241.889a2.313 2.313 0 0 0 1.248 1.181c.282.114.592.17.93.17a3.08 3.08 0 0 0 1.301-.273c.397-.182.72-.433.968-.752l1.011.927a3.036 3.036 0 0 1-.52.573c-.213.185-.462.35-.747.494-.285.144-.605.26-.96.35a4.795 4.795 0 0 1-1.163.132zm-.225-7.056a1.826 1.826 0 0 0-1.322.535 2.31 2.31 0 0 0-.447.639c-.122.25-.209.535-.26.854h3.941v-.137a2.57 2.57 0 0 0-.143-.702 1.848 1.848 0 0 0-.354-.604 1.694 1.694 0 0 0-.587-.425 1.999 1.999 0 0 0-.828-.16zM131.33 5h4.549v10.162h2.565v1.504h-7.114v-1.504h2.675v-8.65h-2.675V5zm9.556 0h4.548v10.162H148v1.504h-7.114v-1.504h2.674v-8.65h-2.674V5z"/></g><g><path d="M176.14 0h16.557a2.14 2.14 0 0 1 2.14 2.14v15.331a2.14 2.14 0 0 1-2.14 2.14H176.14a2.14 2.14 0 0 1-2.14-2.14V2.14A2.14 2.14 0 0 1 176.14 0zm.93 3.172a.535.535 0 0 0-.536.535v1.936c0 .295.24.535.535.535h5.812c.296 0 .535-.24.535-.535V3.707a.535.535 0 0 0-.535-.535h-5.812zm0 5.192a.535.535 0 0 0-.536.535v1.935c0 .296.24.535.535.535h5.812c.296 0 .535-.24.535-.535V8.9a.535.535 0 0 0-.535-.535h-5.812zm0 5.19a.535.535 0 0 0-.536.536v1.935c0 .296.24.535.535.535h5.812c.296 0 .535-.24.535-.535V14.09a.535.535 0 0 0-.535-.535h-5.812zm9.01-10.382a.535.535 0 0 0-.535.535v1.936c0 .295.24.535.535.535h5.812c.295 0 .535-.24.535-.535V3.707a.535.535 0 0 0-.535-.535h-5.812zm0 5.192a.535.535 0 0 0-.535.535v1.935c0 .296.24.535.535.535h5.812c.295 0 .535-.24.535-.535V8.9a.535.535 0 0 0-.535-.535h-5.812zm0 5.19a.535.535 0 0 0-.535.536v1.935c0 .296.24.535.535.535h5.812c.295 0 .535-.24.535-.535V14.09a.535.535 0 0 0-.535-.535h-5.812zM206.098 8.084a.413.413 0 0 1-.142.173.357.357 0 0 1-.192.05.489.489 0 0 1-.251-.086 8.514 8.514 0 0 0-.329-.192 2.685 2.685 0 0 0-.443-.193 1.862 1.862 0 0 0-.6-.086c-.207 0-.388.025-.542.075a1.15 1.15 0 0 0-.39.21.835.835 0 0 0-.237.32 1.052 1.052 0 0 0-.078.41c0 .189.052.347.158.473.106.126.247.234.421.323.175.09.374.17.596.24.223.07.45.146.683.225.232.08.46.173.683.28.223.105.422.239.596.4.175.162.315.36.42.594.107.234.16.518.16.853 0 .364-.063.705-.187 1.022a2.36 2.36 0 0 1-.546.83c-.24.236-.532.422-.878.558a3.231 3.231 0 0 1-1.187.203 3.99 3.99 0 0 1-1.474-.29 3.74 3.74 0 0 1-.64-.334 3.154 3.154 0 0 1-.533-.435l.435-.719a.555.555 0 0 1 .147-.13.36.36 0 0 1 .193-.053c.092 0 .193.038.3.114a9.1 9.1 0 0 0 .382.253c.147.093.32.178.519.254.198.076.437.114.716.114.427 0 .758-.101.992-.304.234-.202.35-.493.35-.872a.81.81 0 0 0-.158-.518 1.282 1.282 0 0 0-.42-.337 3.142 3.142 0 0 0-.597-.231c-.223-.064-.45-.132-.68-.207a5.863 5.863 0 0 1-.68-.267 2.203 2.203 0 0 1-.596-.407 1.851 1.851 0 0 1-.421-.627c-.106-.25-.159-.56-.159-.928 0-.293.059-.58.176-.858.117-.279.288-.526.512-.741.225-.216.501-.389.828-.519.327-.13.7-.195 1.12-.195.476 0 .914.075 1.315.223a2.97 2.97 0 0 1 1.026.624l-.368.708zm4.139 3.756v2.837h-1.5V6.62h2.626c.538 0 1.005.063 1.398.19.394.125.72.302.976.528.256.227.446.498.568.814.123.316.184.661.184 1.037 0 .39-.065.747-.195 1.073-.13.325-.325.604-.585.838-.26.234-.585.416-.975.546-.39.13-.848.195-1.371.195h-1.126zm0-1.17h1.126c.275 0 .514-.034.719-.103.204-.069.373-.167.507-.295a1.21 1.21 0 0 0 .3-.468c.067-.184.1-.39.1-.616 0-.216-.033-.41-.1-.585a1.157 1.157 0 0 0-.3-.446 1.339 1.339 0 0 0-.507-.282 2.378 2.378 0 0 0-.72-.097h-1.125v2.892zm7.895.858v3.15h-1.5v-8.06h2.458c.55 0 1.021.057 1.413.17.392.114.714.273.964.477.251.204.435.449.552.733.117.284.176.597.176.939 0 .271-.04.528-.12.769a2.226 2.226 0 0 1-.903 1.176 2.921 2.921 0 0 1-.755.357c.19.107.353.261.49.462l2.018 2.976h-1.349a.658.658 0 0 1-.332-.078.678.678 0 0 1-.23-.223l-1.695-2.58a.595.595 0 0 0-.21-.206.732.732 0 0 0-.336-.062h-.641zm0-1.075h.936c.283 0 .529-.036.739-.106.21-.07.382-.168.518-.293.135-.124.237-.272.304-.443.066-.17.1-.358.1-.563 0-.408-.135-.722-.404-.941-.27-.22-.681-.33-1.235-.33h-.958v2.676zm11.763-3.834V7.81h-3.573v2.235h2.815V11.2h-2.815v2.279h3.573v1.198h-5.083V6.62h5.083zm9.31 8.058h-1.159a.507.507 0 0 1-.502-.34l-.601-1.644h-3.339l-.602 1.644a.528.528 0 0 1-.496.34h-1.164l3.165-8.058h1.533l3.165 8.058zm-5.216-3.043h2.569l-.98-2.68a12.242 12.242 0 0 1-.307-.948c-.052.19-.103.366-.154.53-.05.163-.099.306-.147.429l-.981 2.67zm14.131-.986c0 .59-.098 1.133-.295 1.627-.197.494-.474.92-.83 1.276a3.715 3.715 0 0 1-1.288.83 4.524 4.524 0 0 1-1.666.296h-3.077V6.62h3.077c.609 0 1.164.099 1.666.298.502.198.93.475 1.287.83.357.355.634.78.83 1.274.198.494.296 1.036.296 1.627zm-1.533 0c0-.442-.059-.839-.178-1.19a2.52 2.52 0 0 0-.507-.892 2.187 2.187 0 0 0-.8-.56 2.752 2.752 0 0 0-1.061-.195h-1.566v5.673h1.566c.393 0 .747-.065 1.061-.195.314-.13.58-.316.8-.56.22-.243.388-.54.507-.891s.178-.748.178-1.19zm7.957-2.564a.413.413 0 0 1-.142.173.357.357 0 0 1-.193.05.489.489 0 0 1-.25-.086 8.514 8.514 0 0 0-.33-.192 2.685 2.685 0 0 0-.442-.193 1.862 1.862 0 0 0-.6-.086c-.207 0-.388.025-.543.075a1.15 1.15 0 0 0-.39.21.835.835 0 0 0-.237.32 1.052 1.052 0 0 0-.078.41c0 .189.053.347.16.473.105.126.245.234.42.323.175.09.373.17.596.24.223.07.45.146.683.225.232.08.46.173.683.28.223.105.421.239.596.4.175.162.315.36.42.594.107.234.16.518.16.853 0 .364-.063.705-.187 1.022a2.36 2.36 0 0 1-.546.83c-.24.236-.533.422-.878.558a3.231 3.231 0 0 1-1.187.203 3.99 3.99 0 0 1-1.474-.29 3.74 3.74 0 0 1-.641-.334 3.154 3.154 0 0 1-.532-.435l.434-.719a.555.555 0 0 1 .148-.13.36.36 0 0 1 .192-.053c.093 0 .194.038.301.114a9.1 9.1 0 0 0 .382.253c.147.093.32.178.518.254.2.076.438.114.716.114.428 0 .758-.101.992-.304.235-.202.352-.493.352-.872a.81.81 0 0 0-.16-.518 1.282 1.282 0 0 0-.42-.337 3.142 3.142 0 0 0-.596-.231c-.223-.064-.45-.132-.68-.207a5.863 5.863 0 0 1-.68-.267 2.203 2.203 0 0 1-.596-.407 1.851 1.851 0 0 1-.421-.627c-.106-.25-.159-.56-.159-.928 0-.293.058-.58.176-.858.117-.279.287-.526.512-.741.225-.216.5-.389.828-.519.327-.13.7-.195 1.12-.195.476 0 .914.075 1.315.223a2.97 2.97 0 0 1 1.026.624l-.368.708zm9.388 6.593h-1.51v-3.522h-3.778v3.522h-1.51V6.62h1.51v3.466h3.778V6.619h1.51v8.058zm7.64-8.058V7.81h-3.573v2.235h2.814V11.2H268v2.279h3.572v1.198h-5.082V6.62h5.082zm7.309 0V7.81h-3.572v2.235h2.814V11.2h-2.814v2.279h3.572v1.198h-5.083V6.62h5.083zm7.906 0V7.85h-2.424v6.827h-1.5V7.85h-2.435V6.62h6.36zm6.201 1.465a.413.413 0 0 1-.142.173.357.357 0 0 1-.192.05.489.489 0 0 1-.251-.086 8.514 8.514 0 0 0-.329-.192 2.685 2.685 0 0 0-.443-.193 1.862 1.862 0 0 0-.6-.086c-.207 0-.388.025-.542.075a1.15 1.15 0 0 0-.39.21.835.835 0 0 0-.237.32 1.052 1.052 0 0 0-.078.41c0 .189.052.347.158.473.106.126.247.234.421.323.175.09.374.17.596.24.223.07.45.146.683.225.232.08.46.173.683.28.223.105.421.239.596.4.175.162.315.36.42.594.107.234.16.518.16.853 0 .364-.063.705-.187 1.022a2.36 2.36 0 0 1-.546.83c-.24.236-.532.422-.878.558a3.231 3.231 0 0 1-1.187.203 3.99 3.99 0 0 1-1.474-.29 3.74 3.74 0 0 1-.64-.334 3.154 3.154 0 0 1-.533-.435l.435-.719a.555.555 0 0 1 .147-.13.36.36 0 0 1 .193-.053c.092 0 .193.038.3.114a9.1 9.1 0 0 0 .382.253c.147.093.32.178.519.254.198.076.437.114.716.114.427 0 .758-.101.992-.304.234-.202.35-.493.35-.872a.81.81 0 0 0-.158-.518 1.282 1.282 0 0 0-.42-.337 3.142 3.142 0 0 0-.597-.231c-.223-.064-.45-.132-.68-.207a5.863 5.863 0 0 1-.68-.267 2.203 2.203 0 0 1-.596-.407 1.851 1.851 0 0 1-.421-.627c-.106-.25-.159-.56-.159-.928 0-.293.059-.58.176-.858.117-.279.288-.526.512-.741.225-.216.501-.389.828-.519.327-.13.7-.195 1.12-.195.476 0 .914.075 1.315.223a2.97 2.97 0 0 1 1.026.624l-.368.708z"/></g></g></svg>